<svg width="25" height="25" viewBox="0 0 25 25" fill="none" xmlns="http://www.w3.org/2000/svg">
<path d="M12.5 0C5.59652 0 0 5.59652 0 12.5C0 19.4035 5.59652 25 12.5 25C12.8766 25 13.2517 24.9831 13.6251 24.9495C13.9722 24.9184 14.3162 24.8708 14.6576 24.8112L14.7888 24.788C21.1359 23.6035 25.5367 17.7802 24.943 11.3507C24.3494 4.92126 18.9567 0.00203451 12.5 0V0ZM11.4958 24.1225H11.4663C11.1422 24.0938 10.8205 24.0505 10.5017 23.995C10.4834 23.9917 10.4651 23.9897 10.4472 23.9862C10.1355 23.9305 9.82707 23.8613 9.52169 23.7805L9.44784 23.7616C9.14998 23.6808 8.85539 23.587 8.56506 23.4829C8.53495 23.4721 8.50464 23.4625 8.47453 23.4513C8.1899 23.3468 7.91036 23.2296 7.63509 23.1028C7.60091 23.0876 7.56673 23.0729 7.53255 23.0566C7.26257 22.9317 6.99788 22.7909 6.73828 22.6428C6.70166 22.6221 6.66463 22.6013 6.62801 22.5808C6.37248 22.4316 6.12284 22.2717 5.87789 22.1029C5.84086 22.077 5.80343 22.052 5.7666 22.0262C5.52592 21.8555 5.29134 21.6742 5.06287 21.4846L5 21.4296V17.9167C5.00305 15.3866 7.05322 13.3364 9.58333 13.3333H15.4167C17.9468 13.3364 19.9969 15.3866 20 17.9167V21.4301L19.9447 21.4762C19.7117 21.6707 19.4727 21.8547 19.2271 22.0284C19.1945 22.0512 19.1616 22.073 19.1292 22.0953C18.8814 22.2675 18.6275 22.4294 18.3675 22.5816C18.335 22.6005 18.3016 22.6184 18.2692 22.6371C18.0058 22.7871 17.7378 22.9287 17.4646 23.0562C17.4333 23.0709 17.4017 23.0845 17.37 23.0979C17.0925 23.2259 16.8105 23.3437 16.5238 23.4491C16.4954 23.4597 16.4667 23.4688 16.4404 23.4788C16.1487 23.5834 15.8529 23.678 15.5534 23.7592L15.4816 23.7771C15.1758 23.8578 14.8671 23.9274 14.5551 23.9834C14.5372 23.9866 14.5192 23.9888 14.5013 23.9917C14.1821 24.0474 13.8601 24.0908 13.5358 24.1197H13.5063C13.173 24.1484 12.8396 24.1638 12.502 24.1638C12.1645 24.1638 11.8284 24.1512 11.4958 24.1225ZM20.8333 20.6576V17.9167C20.8299 14.9266 18.4068 12.5035 15.4167 12.5H9.58333C6.59322 12.5035 4.17013 14.9266 4.16667 17.9167V20.6571C-0.321045 16.0769 -0.270996 8.73332 4.27856 4.21448C8.82812 -0.304159 16.1719 -0.304159 20.7214 4.21448C25.271 8.73332 25.321 16.0769 20.8333 20.6571V20.6576Z" fill="#D6DCE4"/>
<path d="M12.4999 3.3335C10.1987 3.3335 8.33325 5.19893 8.33325 7.50016C8.33325 9.80139 10.1987 11.6668 12.4999 11.6668C14.8011 11.6668 16.6666 9.80139 16.6666 7.50016C16.6641 5.19995 14.8001 3.33594 12.4999 3.3335ZM12.4999 10.8335C10.6589 10.8335 9.16659 9.34119 9.16659 7.50016C9.16659 5.65914 10.6589 4.16683 12.4999 4.16683C14.3409 4.16683 15.8333 5.65914 15.8333 7.50016C15.8312 9.34017 14.3399 10.8315 12.4999 10.8335Z" fill="#D6DCE4"/>
</svg>
