<svg width="35" height="35" viewBox="0 0 35 35" fill="none" xmlns="http://www.w3.org/2000/svg">
<g clip-path="url(#clip0)">
<path d="M33.5845 18.3124C33.5845 18.3124 27.2895 13.1619 22.1394 20.0293C22.1394 20.0293 17.5612 16.0235 12.4107 20.0293L11.8384 10.3006C11.8384 10.3006 11.5856 9.95321 11.1933 9.44631L11.5063 9.47808C11.5063 9.47808 13.5339 9.47808 13.8715 8.72068L14.9966 9.75772C15.4413 10.1317 16.1031 10.0842 16.4901 9.65064L19.2722 6.53133C19.6095 6.15345 19.637 5.59154 19.3383 5.18255L16.2367 1.14441L7.11354 5.31124C7.11354 5.31124 6.77496 5.46023 6.68786 5.72252C6.11547 7.43936 1.53735 24.035 1.53735 25.1794V26.5079C1.53735 26.7551 1.64803 26.987 1.84287 27.1392C2.09108 27.3337 3.3259 27.6743 3.82657 28.0407C5.98645 29.6203 9.34775 32.3834 12.9828 33.1912C18.133 34.3357 24.4279 32.6188 24.4279 32.6188C24.4279 32.6188 28.434 34.908 33.5842 34.3357V18.3124" fill="#FFD578"/>
<path d="M33.9471 17.8694C33.9235 17.8507 33.3259 17.3635 32.3406 16.8729C31.3556 16.3841 29.978 15.8873 28.3932 15.886C27.3378 15.8853 26.1914 16.1113 25.0446 16.7053C23.8969 17.2986 22.7541 18.2548 21.6817 19.6858L22.1395 20.0293L22.5164 19.5987C22.4908 19.5767 21.9486 19.1045 21.0225 18.6297C20.0975 18.1562 18.7828 17.6775 17.2221 17.6765C15.6628 17.6739 13.8667 18.1687 12.0595 19.5777L12.4112 20.0293L12.9823 19.9955L12.4099 10.2672C12.4037 10.1585 12.3653 10.0518 12.3012 9.96369C12.2989 9.96041 12.0428 9.60873 11.6463 9.09627L11.1934 9.44631L11.1358 10.0154L11.4485 10.0475L11.5064 10.0505C11.5254 10.0498 12.0539 10.0511 12.6597 9.94732C12.9639 9.89427 13.2875 9.81732 13.5939 9.68077C13.7472 9.61168 13.8975 9.52719 14.0376 9.41193C14.1768 9.297 14.3084 9.14669 14.3946 8.9535L13.872 8.72068L13.4839 9.14146L14.609 10.1785L14.6287 10.1959C14.9355 10.4542 15.3147 10.5826 15.688 10.5819C16.1399 10.5826 16.5937 10.3946 16.9176 10.0315L19.7 6.91216C19.9767 6.60206 20.1181 6.20846 20.1178 5.81585C20.1181 5.47726 20.0127 5.13475 19.8015 4.84528L19.793 4.83382L16.6913 0.796C16.5292 0.584793 16.2417 0.513408 15.9997 0.62376L6.87626 4.79059L7.11399 5.31124L6.88314 4.78765C6.8589 4.79878 6.74266 4.84986 6.59563 4.95694C6.45286 5.06631 6.25574 5.22905 6.14571 5.54177C6.06778 5.77524 5.93451 6.22091 5.75342 6.84503C5.12144 9.02324 3.9305 13.3171 2.89542 17.1971C2.37804 19.1373 1.89996 20.973 1.54992 22.3908C1.37506 23.0998 1.23229 23.7039 1.13209 24.1683C1.08166 24.4007 1.04204 24.5982 1.0142 24.7603C0.98637 24.927 0.967705 25.0412 0.966068 25.1794V26.5079C0.965086 26.9257 1.15632 27.3285 1.49065 27.5898C1.57939 27.6579 1.65044 27.6939 1.72805 27.7329C1.98936 27.8593 2.33482 27.9791 2.6829 28.1173C3.02411 28.249 3.36466 28.4068 3.48942 28.5027C4.55691 29.2831 5.95153 30.3807 7.54655 31.3892C9.14289 32.3975 10.9435 33.3228 12.8595 33.7498C14.2007 34.0478 15.5993 34.1569 16.9448 34.1569C20.979 34.1552 24.5515 33.1775 24.5793 33.1712L24.4284 32.6191L24.1445 33.1159C24.1933 33.1408 27.4324 34.9958 31.9143 35.0001C32.4742 35.0001 33.0535 34.9706 33.6478 34.9048C33.9618 34.8697 34.1884 34.5868 34.1534 34.2728C34.1183 33.9584 33.8358 33.7322 33.5214 33.7672C32.9713 33.8281 32.4343 33.8553 31.9143 33.8553C29.834 33.8556 28.0218 33.4188 26.7349 32.9813C26.0915 32.7629 25.5797 32.5448 25.2319 32.3827C25.0581 32.3018 24.9251 32.235 24.837 32.1892L24.7394 32.1371L24.7169 32.1247L24.7123 32.1221C24.5813 32.0474 24.4231 32.0274 24.2777 32.0671L24.242 32.0766C23.8661 32.1764 20.5553 33.0141 16.9441 33.0124C15.6608 33.0127 14.3409 32.907 13.107 32.6326C11.3879 32.2517 9.69039 31.3919 8.15725 30.4219C6.62314 29.452 5.25701 28.3783 4.1643 27.579C3.98354 27.4477 3.78642 27.3478 3.57717 27.2519C3.26544 27.1104 2.92882 26.986 2.6531 26.8792C2.51557 26.8265 2.39376 26.7784 2.30535 26.7394L2.20449 26.6919L2.18452 26.6808L2.11903 26.7869L2.19598 26.689L2.18452 26.6808L2.11903 26.7869L2.19598 26.689C2.14097 26.6451 2.11051 26.5845 2.10986 26.5079V25.1794H2.11019C2.11051 25.1516 2.12885 25.0131 2.16422 24.8307C2.29651 24.1296 2.65048 22.6721 3.11055 20.8842C3.80115 18.1985 4.73374 14.7448 5.5432 11.8151C5.94793 10.3504 6.32188 9.01604 6.61921 7.97474C6.91555 6.93573 7.1392 6.17866 7.23122 5.9036L7.12807 5.86889L7.22172 5.92522L7.23122 5.90328L7.12807 5.86889L7.22172 5.92522L7.20666 5.91605L7.22074 5.92653L7.22139 5.92522L7.20633 5.91638L7.22074 5.92653L7.29605 5.86366L7.34124 5.8368L7.35041 5.83222L7.25905 5.64131L7.34419 5.83484L7.35041 5.83222L7.25905 5.64099L7.34419 5.83484L7.35107 5.83189L16.0606 1.85433L18.8849 5.53129L19.3384 5.18255L18.8761 5.51983C18.9412 5.60922 18.9727 5.71139 18.9727 5.81585C18.9724 5.937 18.9304 6.05489 18.8453 6.15018L16.0629 9.26949C15.9627 9.38148 15.8278 9.43682 15.6877 9.43747C15.5721 9.43715 15.4601 9.39982 15.3648 9.31992L14.9964 9.75805L15.3845 9.33727L14.2593 8.2999C14.1244 8.17547 13.9358 8.12308 13.756 8.16008C13.5763 8.19708 13.4237 8.31988 13.3487 8.48753L13.3431 8.49572C13.3261 8.52388 13.2082 8.61262 13.0229 8.67811C12.7472 8.78158 12.3529 8.84675 12.0412 8.87556C11.885 8.89095 11.7478 8.89849 11.6515 8.90242L11.5405 8.90569L11.5061 8.90602V9.4784L11.5641 8.90896L11.251 8.8772C11.0225 8.85362 10.8044 8.96791 10.6927 9.16863C10.5814 9.36936 10.6 9.61462 10.7405 9.79636C10.9341 10.0469 11.0935 10.2581 11.2042 10.4061C11.3149 10.5541 11.3755 10.6376 11.3758 10.6376L11.8385 10.3006L11.2674 10.3344L11.8398 20.063C11.8522 20.2742 11.9819 20.4631 12.1748 20.5506C12.3676 20.638 12.5949 20.6108 12.7622 20.4808C14.389 19.2195 15.8989 18.8239 17.2221 18.821C18.544 18.8203 19.6882 19.2316 20.5009 19.6481C20.9066 19.856 21.2288 20.0643 21.4459 20.2179C21.5543 20.2948 21.6365 20.358 21.6902 20.4006L21.7488 20.4484L21.7616 20.4589L21.7636 20.4605L21.9063 20.2955L21.7626 20.4599L21.7636 20.4605L21.906 20.2955L21.7623 20.4599C21.8824 20.5646 22.0403 20.6147 22.1987 20.5984C22.3572 20.5817 22.5016 20.4998 22.5969 20.3724C23.5845 19.0564 24.5934 18.2273 25.5702 17.722C26.5476 17.2171 27.4979 17.0311 28.3928 17.0304C29.7334 17.0291 30.9515 17.4594 31.8311 17.8975C32.2702 18.1163 32.6242 18.3353 32.8652 18.4974C32.9857 18.5783 33.0777 18.6451 33.1383 18.6906L33.2051 18.7417L33.2201 18.7535L33.2221 18.7551C33.4667 18.9555 33.8272 18.9192 34.0276 18.6746C34.2277 18.4303 34.1917 18.0698 33.9471 17.8694Z" fill="#54596E"/>
<path d="M11.2665 22.8905C11.3621 22.8918 11.5052 22.8627 11.6486 22.7795C11.8667 22.6534 12.0812 22.4298 12.2989 22.0352C12.5167 21.638 12.743 21.0591 12.9663 20.1681C13.0429 19.8613 12.8566 19.5505 12.5498 19.4739C12.2433 19.3973 11.9325 19.5836 11.8559 19.8904C11.5825 20.9916 11.3097 21.5015 11.1663 21.6888L11.0897 21.7769L11.0779 21.787L11.0756 21.7886L11.2665 22.0729V21.7457C11.1565 21.7438 11.0792 21.7841 11.0756 21.7886L11.2665 22.0729V21.7457C10.9505 21.7457 10.6941 22.0018 10.6941 22.3181C10.6941 22.6345 10.9505 22.8905 11.2665 22.8905Z" fill="#54596E"/>
<path d="M24.4285 22.8905C24.4341 22.7451 24.3542 21.4265 22.544 19.6245C22.3207 19.4012 21.9582 19.4012 21.7349 19.6245C21.5112 19.8482 21.5112 20.2103 21.7349 20.434C22.5483 21.2477 22.932 21.9013 23.1157 22.3293C23.2074 22.5434 23.249 22.7013 23.2683 22.7972L23.2834 22.8932L23.2841 22.9043L23.5771 22.8905H23.2841V22.9043L23.5771 22.8902H23.2841C23.2841 23.2062 23.5401 23.4626 23.8561 23.4626C24.1724 23.4629 24.4285 23.2065 24.4285 22.8905Z" fill="#54596E"/>
<path d="M29.5789 26.8963C29.5785 26.9677 29.5936 27.1265 29.6853 27.3239C29.8218 27.6232 30.1251 27.9883 30.7073 28.3164C31.2911 28.6465 32.1576 28.955 33.4906 29.1776C33.8023 29.2297 34.0971 29.0192 34.1491 28.7074C34.2009 28.3957 33.9903 28.1006 33.6786 28.0489C32.0207 27.7742 31.2567 27.3629 30.9466 27.1006C30.7895 26.9693 30.7407 26.8789 30.7243 26.8445L30.7174 26.8278L30.7132 26.8295L30.7174 26.8282V26.8278L30.7132 26.8295L30.7174 26.8282L30.4283 26.8966H30.7233L30.7177 26.8282L30.4283 26.8966H30.7233C30.7233 26.5806 30.4672 26.3242 30.1513 26.3242C29.8349 26.3242 29.5789 26.5803 29.5789 26.8963Z" fill="#54596E"/>
<path d="M33.5844 6.39024L28.9929 0.572388L24.4014 6.39024H26.7174V8.58384H31.2956V6.39024H33.5844Z" fill="#AFF05D"/>
<path d="M33.5845 6.39024L34.0338 6.03561L29.4423 0.217756C29.3336 0.0798984 29.1689 0 28.993 0C28.8172 0 28.6528 0.079571 28.5437 0.217756L23.9522 6.03561C23.8166 6.20752 23.7911 6.44263 23.8864 6.63976C23.982 6.83688 24.1824 6.9623 24.4015 6.9623H26.1452V8.58384C26.1452 8.73447 26.2064 8.88215 26.3128 8.98857C26.4196 9.095 26.5669 9.15623 26.7175 9.15623H31.2957C31.4463 9.15623 31.5936 9.095 31.7001 8.98857C31.8065 8.88182 31.8677 8.73447 31.8677 8.58384V6.9623H33.5845C33.8036 6.9623 34.004 6.83688 34.0996 6.63976C34.1949 6.44296 34.1694 6.20752 34.0338 6.03561L33.5845 6.39024V5.81785H31.2957C31.145 5.81785 30.9973 5.87908 30.8909 5.98551C30.7845 6.09226 30.7233 6.23961 30.7233 6.39024V8.01178H27.2896V6.39024C27.2896 6.23961 27.2287 6.09193 27.1219 5.98551C27.0155 5.87908 26.8682 5.81785 26.7175 5.81785H25.5823L28.993 1.49613L33.1353 6.74487L33.5845 6.39024V5.81785V6.39024Z" fill="#55596C"/>
<path d="M26.7175 10.3007H31.2956V12.0175H26.7175V10.3007Z" fill="#AFF05D"/>
<path d="M31.2955 12.0175V11.4455H27.2895V10.8731H30.7231V12.0175H31.2955V11.4455V12.0175H31.8676V10.3007C31.8676 10.1501 31.8067 10.0027 31.6999 9.89629C31.5935 9.78954 31.4462 9.72864 31.2955 9.72864H26.7174C26.5668 9.72864 26.4191 9.78954 26.3127 9.89629C26.2063 10.0027 26.145 10.1501 26.145 10.3007V12.0175C26.145 12.1682 26.2063 12.3158 26.3127 12.4223C26.4194 12.5287 26.5668 12.5899 26.7174 12.5899H31.2955C31.4462 12.5899 31.5935 12.5287 31.6999 12.4223C31.8064 12.3155 31.8676 12.1682 31.8676 12.0175H31.2955Z" fill="#55596C"/>
<path d="M26.7174 14.3068H31.2955C31.6115 14.3068 31.8676 14.0504 31.8676 13.7344C31.8676 13.4184 31.6115 13.162 31.2955 13.162H26.7174C26.4014 13.162 26.145 13.4184 26.145 13.7344C26.145 14.0504 26.4014 14.3068 26.7174 14.3068Z" fill="#55596C"/>
<path d="M8.40439 25.7518C8.30419 25.7518 8.20268 25.778 8.11067 25.8334C7.83954 25.9961 7.75145 26.3475 7.9142 26.6186C7.93941 26.6592 8.62542 27.7964 10.095 28.9396C11.5607 30.0811 13.8283 31.2236 16.9391 31.2236H16.9463C17.8799 31.2236 18.8878 31.1214 19.9703 30.8896C20.2795 30.8234 20.4763 30.5192 20.4098 30.2101C20.3525 29.9416 20.1151 29.7576 19.8508 29.7576C19.8112 29.7576 19.7709 29.7618 19.7307 29.7703C18.7228 29.9864 17.7964 30.0791 16.9463 30.0791C14.1158 30.0772 12.1151 29.0568 10.7974 28.0358C10.1402 27.5253 9.65821 27.0142 9.34418 26.6353C9.187 26.4457 9.07174 26.2892 8.99741 26.1828C8.96041 26.1294 8.93356 26.0888 8.91653 26.0626L8.89852 26.0344L8.89524 26.0295C8.78784 25.8507 8.59857 25.7518 8.40439 25.7518Z" fill="#DDBC76"/>
</g>
<defs>
<clipPath id="clip0">
<rect width="35" height="35" fill="white"/>
</clipPath>
</defs>
</svg>
