<svg width="25" height="25" viewBox="0 0 25 25" fill="none" xmlns="http://www.w3.org/2000/svg">
<path d="M2.92969 1.95312H4.10156V0H6.05469V1.95312H18.9453V0H20.8984V1.95312H22.0703C23.6857 1.95312 25 3.26738 25 4.88281V22.0703C25 23.6857 23.6857 25 22.0703 25H2.92969C1.31426 25 0 23.6857 0 22.0703V4.88281C0 3.26738 1.31426 1.95312 2.92969 1.95312ZM1.95312 22.0703C1.95312 22.6088 2.39121 23.0469 2.92969 23.0469H22.0703C22.6088 23.0469 23.0469 22.6088 23.0469 22.0703V9.17969H1.95312V22.0703ZM1.95312 7.22656H23.0469V4.88281C23.0469 4.34434 22.6088 3.90625 22.0703 3.90625H20.8984V5.85938H18.9453V3.90625H6.05469V5.85938H4.10156V3.90625H2.92969C2.39121 3.90625 1.95312 4.34434 1.95312 4.88281V7.22656Z" fill="#D6DCE4"/>
<path d="M19.3359 11.2305H21.2891V13.1836H19.3359V11.2305Z" fill="#D6DCE4"/>
<path d="M15.4297 11.2305H17.3828V13.1836H15.4297V11.2305Z" fill="#D6DCE4"/>
<path d="M11.5234 11.2305H13.4766V13.1836H11.5234V11.2305Z" fill="#D6DCE4"/>
<path d="M7.61719 11.2305H9.57031V13.1836H7.61719V11.2305Z" fill="#D6DCE4"/>
<path d="M3.71094 11.2305H5.66406V13.1836H3.71094V11.2305Z" fill="#D6DCE4"/>
<path d="M19.3359 15.1367H21.2891V17.0898H19.3359V15.1367Z" fill="#D6DCE4"/>
<path d="M15.4297 15.1367H17.3828V17.0898H15.4297V15.1367Z" fill="#D6DCE4"/>
<path d="M11.5234 15.1367H13.4766V17.0898H11.5234V15.1367Z" fill="#D6DCE4"/>
<path d="M7.61719 15.1367H9.57031V17.0898H7.61719V15.1367Z" fill="#D6DCE4"/>
<path d="M19.3359 19.043H21.2891V20.9961H19.3359V19.043Z" fill="#D6DCE4"/>
<path d="M15.4297 19.043H17.3828V20.9961H15.4297V19.043Z" fill="#D6DCE4"/>
<path d="M11.5234 19.043H13.4766V20.9961H11.5234V19.043Z" fill="#D6DCE4"/>
<path d="M7.61719 19.043H9.57031V20.9961H7.61719V19.043Z" fill="#D6DCE4"/>
<path d="M3.71094 15.1367H5.66406V17.0898H3.71094V15.1367Z" fill="#D6DCE4"/>
</svg>
