<svg width="25" height="25" viewBox="0 0 25 25" fill="none" xmlns="http://www.w3.org/2000/svg">
<g clip-path="url(#clip0)">
<path d="M24.5801 11.176L22.4682 9.25159V2.87058C22.4682 2.46458 22.139 2.13538 21.733 2.13538H16.6492C16.2432 2.13538 15.914 2.46453 15.914 2.87058V3.27947L13.3634 0.955396C12.8711 0.506714 12.1287 0.506763 11.6365 0.955347L0.419817 11.176C0.0254808 11.5354 -0.104841 12.0891 0.0878344 12.5866C0.280559 13.0841 0.749797 13.4055 1.28334 13.4055H3.0748V23.6458C3.0748 24.0518 3.40395 24.381 3.81 24.381H9.9581C10.3641 24.381 10.6933 24.0519 10.6933 23.6458V17.4282H14.3066V23.6459C14.3066 24.0519 14.6358 24.3811 15.0418 24.3811H21.1897C21.5957 24.3811 21.9249 24.0519 21.9248 23.6459V13.4056H23.7167C24.2502 13.4056 24.7195 13.0841 24.9122 12.5866C25.1048 12.0891 24.9746 11.5354 24.5801 11.176ZM21.1897 11.9352C20.7837 11.9352 20.4545 12.2643 20.4545 12.6704V22.9107H15.7771V16.693C15.7771 16.287 15.4479 15.9578 15.0419 15.9578H9.9581C9.55209 15.9578 9.22289 16.287 9.22289 16.693V22.9107H4.54516V12.6704C4.54516 12.2644 4.21601 11.9352 3.80995 11.9352H1.76977L12.5 2.15784L16.1541 5.48748C16.3694 5.68357 16.6801 5.73411 16.9463 5.61658C17.2126 5.4989 17.3845 5.23513 17.3845 4.94402V3.60579H20.9978V9.57629C20.9978 9.78318 21.085 9.9804 21.2379 10.1198L23.2302 11.9352H21.1897Z" fill="#D6DCE4"/>
</g>
<defs>
<clipPath id="clip0">
<rect width="25" height="25" fill="white"/>
</clipPath>
</defs>
</svg>
