<svg width="64" height="64" viewBox="0 0 64 64" fill="none" xmlns="http://www.w3.org/2000/svg">
<g clip-path="url(#clip0)">
<path d="M14.0002 47.5136H7.51598C6.1261 47.5136 5 46.3875 5 44.9982V19.0293C5 17.64 6.1261 16.5139 7.51598 16.5139H14.0002V47.5136Z" fill="#1B1B35"/>
<path d="M14.0001 47.5136V46.5134H7.51587C6.67873 46.5123 6.00124 45.8348 6.0001 44.9982V19.0293C6.00124 18.1927 6.67873 17.5152 7.51587 17.5135H12.9999V47.5136H14.0001V46.5134V47.5136H14.9997V16.5139C14.9997 16.2507 14.8933 15.9926 14.7068 15.8066C14.5208 15.6207 14.2633 15.5137 14.0001 15.5137H7.51587C5.57323 15.5142 4.00082 17.0878 4.00024 19.0293V44.9982C4.00082 46.9397 5.57323 48.5127 7.51587 48.5139H14.0001C14.2633 48.5139 14.5208 48.4068 14.7068 48.2209C14.8933 48.0349 14.9997 47.7769 14.9997 47.5136H14.0001Z" fill="#54596E"/>
<path d="M20.4843 47.5136H14.0001V16.5139H20.4843C21.8742 16.5139 22.9998 17.64 22.9998 19.0293V44.9982C22.9998 46.3875 21.8742 47.5136 20.4843 47.5136Z" fill="#4299E1"/>
<path d="M20.4843 47.5136V46.5134H14.9997V17.5135H20.4843C21.3215 17.5152 21.9984 18.1927 22.0001 19.0293V44.9982C21.9984 45.8348 21.3215 46.5123 20.4843 46.5134V48.5139C22.427 48.5127 23.9994 46.9397 23.9999 44.9982V19.0293C23.9994 17.0878 22.4264 15.5142 20.4843 15.5137H14.0001C13.7369 15.5137 13.4794 15.6207 13.2928 15.8066C13.1069 15.9926 12.9999 16.2507 12.9999 16.5139V47.5136C12.9999 47.7769 13.1069 48.0349 13.2928 48.2209C13.4794 48.4074 13.7369 48.5139 14.0001 48.5139H20.4843V47.5136Z" fill="#54596E"/>
<path d="M49.9997 47.5136H43.5155C42.1262 47.5136 41.0001 46.3869 41.0001 44.9982V19.0293C41.0001 17.64 42.1262 16.5139 43.5155 16.5139H49.9997V47.5136Z" fill="#4299E1"/>
<path d="M49.9998 47.5136V46.5134H43.5155C42.679 46.5123 42.0015 45.8348 41.9998 44.9982V19.0293C42.0015 18.1927 42.679 17.5152 43.5155 17.5135H49.0001V47.5136H49.9998V46.5134V47.5136H51V16.5139C51 16.2507 50.893 15.9926 50.707 15.8066C50.5205 15.6207 50.263 15.5137 49.9998 15.5137H43.5155C41.5735 15.5142 40.0005 17.0878 40.0005 19.0293V44.9982C40.0005 46.9397 41.5735 48.5127 43.5155 48.5139H49.9998C50.263 48.5139 50.521 48.4068 50.707 48.2209C50.893 48.0349 51 47.7769 51 47.5136H49.9998Z" fill="#54596E"/>
<path d="M56.484 47.5136H49.9998V16.5139H56.484C57.8739 16.5139 59 17.64 59 19.0293V44.9982C59 46.3875 57.8739 47.5136 56.484 47.5136Z" fill="#1B1B35"/>
<path d="M56.484 47.5136V46.5134H51V17.5135H56.484C57.3211 17.5152 57.9986 18.1927 57.9998 19.0293V44.9982C57.9986 45.8348 57.3211 46.5123 56.484 46.5134V48.5139C58.4266 48.5127 59.999 46.9397 59.9996 44.9982V19.0293C59.999 17.0878 58.4266 15.5142 56.484 15.5137H49.9998C49.7365 15.5137 49.4791 15.6207 49.2931 15.8066C49.1066 15.9926 49.0001 16.2507 49.0001 16.5139V47.5136C49.0001 47.7769 49.1066 48.0349 49.2931 48.2209C49.4791 48.4068 49.7365 48.5139 49.9998 48.5139H56.484V47.5136Z" fill="#54596E"/>
<path d="M6.00024 41.0059V44.9982C6.00139 45.8348 6.67888 46.5122 7.51601 46.5134H13V41.5135H7.51601C6.94667 41.5135 6.42139 41.3246 6.00024 41.0059Z" fill="#121223"/>
<path d="M5 38.998V44.9982C5 46.3875 6.1261 47.5136 7.51598 47.5136H13V41.5135V46.5134H7.51598C6.67885 46.5122 6.00136 45.8347 6.00021 44.9982V41.0059C5.39253 40.5464 5 39.818 5 38.998Z" fill="#54596E"/>
<path d="M22.0002 41.0059C21.5785 41.3246 21.0538 41.5135 20.4845 41.5135H14.9999V46.5134H20.4845C21.3216 46.5122 21.9985 45.8348 22.0002 44.9982V41.0059Z" fill="#1A66A5"/>
<path d="M22.9997 38.998C22.9997 39.818 22.6072 40.5464 22.0001 41.0059V44.9982C21.9989 45.8347 21.3214 46.5122 20.4843 46.5134H14.9997V41.5135H12.9999V47.5136H20.4843C21.8742 47.5136 22.9997 46.3869 22.9997 44.9982V38.998Z" fill="#54596E"/>
<path d="M41.9999 41.0059V44.9982C42.0016 45.8348 42.6791 46.5122 43.5156 46.5134H49.0002V41.5135H43.5156C42.9463 41.5135 42.4216 41.3246 41.9999 41.0059Z" fill="#1A66A5"/>
<path d="M41.0001 38.998V44.9982C41.0001 46.3875 42.1256 47.5136 43.5155 47.5136H49.0001V41.5135V46.5134H43.5155C42.679 46.5122 42.0015 45.8347 41.9998 44.9982V41.0059C41.3927 40.5464 41.0001 39.818 41.0001 38.998Z" fill="#54596E"/>
<path d="M57.9999 41.0059C57.5788 41.3246 57.0535 41.5135 56.4841 41.5135H51.0001V46.5134H56.4841C57.3213 46.5122 57.9988 45.8348 57.9999 44.9982V41.0059Z" fill="#121223"/>
<path d="M59 38.998C59 39.8186 58.6074 40.547 57.9998 41.0059V44.9982C57.9986 45.8347 57.3211 46.5122 56.484 46.5139H51V41.514H49.0001V47.5142H56.484C57.8739 47.5142 59 46.3875 59 44.9982V38.998Z" fill="#54596E"/>
<path d="M4.99995 36.5136C2.79124 36.5136 1.00024 34.7226 1.00024 32.5138V31.5136C1.00024 29.3049 2.79124 27.5139 4.99995 27.5139V36.5136Z" fill="#A0AEC0"/>
<path d="M4.99992 36.5135V35.5139C3.34396 35.5104 2.00272 34.1698 1.99986 32.5138V31.5136C2.00272 29.8576 3.34396 28.5164 4.99992 28.5135V27.5139H4.00028V36.5135H4.99992V35.5139V36.5135H6.00014V27.5139C6.00014 27.2507 5.89314 26.9926 5.70717 26.8066C5.5212 26.6207 5.26314 26.5137 4.99992 26.5137C2.23846 26.5142 0.000572205 28.7521 0 31.5136V32.5138C0.000572205 35.2753 2.23846 37.5132 4.99992 37.5137C5.26314 37.5137 5.52063 37.4067 5.70717 37.2208C5.89314 37.0348 6.00014 36.7767 6.00014 36.5135H4.99992Z" fill="#54596E"/>
<path d="M59 36.5136C61.2087 36.5136 62.9997 34.7226 62.9997 32.5138V31.5136C62.9997 29.3049 61.2087 27.5139 59 27.5139V36.5136Z" fill="#A0AEC0"/>
<path d="M59 36.5135V37.5137C61.7614 37.5132 63.9993 35.2753 63.9999 32.5138V31.5136C63.9993 28.7521 61.7614 26.5142 59 26.5137C58.7368 26.5137 58.4787 26.6207 58.2927 26.8066C58.1068 26.9926 57.9998 27.2507 57.9998 27.5139V36.5135C57.9998 36.7767 58.1068 37.0348 58.2927 37.2208C58.4787 37.4067 58.7362 37.5137 59 37.5137V36.5135H60.0002V27.5139H59V28.5135C60.6559 28.5164 61.9972 29.8576 62 31.5136V32.5138C61.9972 34.1698 60.6559 35.5104 59 35.5139V36.5135H60.0002H59Z" fill="#54596E"/>
<path d="M22.9998 25.5135H41.0002V39.5136H22.9998V25.5135Z" fill="#A0AEC0"/>
<path d="M41.0002 39.5136V38.5134H24V26.5137H40V39.5136H41.0002V38.5134V39.5136H41.9998V25.5135C41.9998 25.2503 41.8934 24.9928 41.7074 24.8068C41.5215 24.6203 41.2634 24.5139 41.0002 24.5139H22.9998C22.7365 24.5139 22.4791 24.6203 22.2925 24.8068C22.1066 24.9928 22.0001 25.2503 22.0001 25.5135V39.5136C22.0001 39.7768 22.1066 40.0349 22.2925 40.2209C22.4791 40.4068 22.7365 40.5138 22.9998 40.5138H41.0002C41.2634 40.5138 41.5209 40.4068 41.7069 40.2209C41.8934 40.0343 41.9998 39.7768 41.9998 39.5136H41.0002Z" fill="#54596E"/>
</g>
<defs>
<clipPath id="clip0">
<rect width="64" height="64" fill="white"/>
</clipPath>
</defs>
</svg>
