<svg width="25" height="25" viewBox="0 0 25 25" fill="none" xmlns="http://www.w3.org/2000/svg">
<path d="M23.8476 24.0235H22.7766V8.47349C22.7766 7.74971 22.1877 7.16089 21.464 7.16089H19.0703C18.3465 7.16089 17.7577 7.74976 17.7577 8.47349V24.0235H15.0383V15.5188C15.0383 14.7951 14.4495 14.2062 13.7257 14.2062H11.332C10.6082 14.2062 10.0194 14.7951 10.0194 15.5188V24.0235H7.30005V19.619C7.30005 18.8952 6.71118 18.3064 5.98745 18.3064H3.59365C2.86987 18.3064 2.28105 18.8953 2.28105 19.619V24.0235H1.15234C0.882666 24.0235 0.664062 24.2421 0.664062 24.5118C0.664062 24.7814 0.882666 25 1.15234 25H23.8476C24.1172 25 24.3358 24.7814 24.3358 24.5118C24.3358 24.2421 24.1172 24.0235 23.8476 24.0235ZM6.32339 24.0235H3.25757V19.619C3.25757 19.4337 3.4083 19.283 3.5936 19.283H5.98735C6.17266 19.283 6.32339 19.4337 6.32339 19.619V24.0235ZM14.0617 24.0235H10.9959V15.5188C10.9959 15.3335 11.1466 15.1828 11.3319 15.1828H13.7257C13.9109 15.1828 14.0617 15.3335 14.0617 15.5188V24.0235ZM21.8 24.0235H18.7342V8.47349C18.7342 8.28818 18.885 8.13745 19.0703 8.13745H21.464C21.6493 8.13745 21.8 8.28818 21.8 8.47349V24.0235Z" fill="#D6DCE4"/>
<path d="M22.7754 0.513477C22.7823 0.380225 22.7354 0.244727 22.6336 0.142969C22.5319 0.0412109 22.3964 -0.00571289 22.2631 0.00117188C22.2553 0.000830078 22.2475 0 22.2395 0H19.2854C19.0157 0 18.7971 0.218604 18.7971 0.488281C18.7971 0.757959 19.0157 0.976562 19.2854 0.976562H21.1095L16.2825 5.80361L14.4621 3.9833C14.3706 3.89175 14.2464 3.84028 14.1169 3.84028C13.9874 3.84028 13.8632 3.89175 13.7716 3.9833L4.99384 12.7611C4.80316 12.9518 4.80316 13.261 4.99384 13.4517C5.0892 13.547 5.21415 13.5946 5.3391 13.5946C5.46405 13.5946 5.58905 13.547 5.68436 13.4516L14.1169 5.01904L15.9372 6.83936C16.1279 7.03003 16.437 7.03003 16.6278 6.83936L21.8 1.66714V3.31802C21.8 3.5877 22.0186 3.8063 22.2883 3.8063C22.558 3.8063 22.7766 3.5877 22.7766 3.31802V0.537109C22.7766 0.52915 22.7758 0.521387 22.7754 0.513477Z" fill="#D6DCE4"/>
<path d="M3.69336 15.2983C3.96303 15.2983 4.18164 15.0797 4.18164 14.8101C4.18164 14.5404 3.96303 14.3218 3.69336 14.3218C3.42369 14.3218 3.20508 14.5404 3.20508 14.8101C3.20508 15.0797 3.42369 15.2983 3.69336 15.2983Z" fill="#D6DCE4"/>
</svg>
