<svg width="25" height="25" viewBox="0 0 25 25" fill="none" xmlns="http://www.w3.org/2000/svg">
<g clip-path="url(#clip0)">
<path d="M23.5352 14.9414H23.0469V17.1387C23.0469 18.2158 22.1704 19.0918 21.0938 19.0918C20.7172 19.0918 20.3651 18.9848 20.0668 18.7994C19.8671 19.6655 19.0893 20.3125 18.1641 20.3125H18.1635C17.087 20.3125 16.2104 19.4365 16.2104 18.3594V14.9414H8.78963V18.3594C8.78963 19.4365 7.91302 20.3125 6.83594 20.3125C5.91068 20.3125 5.13287 19.6655 4.93317 18.7994C4.63486 18.9848 4.28276 19.0918 3.90625 19.0918C2.82955 19.0918 1.95312 18.2158 1.95312 17.1387V14.9414H1.46484C0.657272 14.9414 0 14.2841 0 13.4766V11.5234C0 10.7159 0.657272 10.0586 1.46484 10.0586H1.95312V7.86133C1.95312 6.78425 2.82955 5.9082 3.90625 5.9082C4.28276 5.9082 4.63486 6.01521 4.93317 6.2006C5.13287 5.33447 5.91068 4.6875 6.83594 4.6875H6.83651C7.91302 4.6875 8.78963 5.56355 8.78963 6.64062V10.0586H16.2104V6.64062C16.2104 5.56355 17.087 4.6875 18.1641 4.6875C19.0893 4.6875 19.8671 5.33447 20.0668 6.2006C20.3651 6.01521 20.7172 5.9082 21.0938 5.9082C22.1704 5.9082 23.0469 6.78425 23.0469 7.86133V10.0586H23.5352C24.3427 10.0586 25 10.7159 25 11.5234V13.4766C25 14.2841 24.3427 14.9414 23.5352 14.9414ZM1.95312 11.0352H1.46484C1.19572 11.0352 0.976562 11.2543 0.976562 11.5234V13.4766C0.976562 13.7457 1.19572 13.9648 1.46484 13.9648H1.95312V11.0352ZM4.88281 7.86133C4.88281 7.59182 4.77352 7.34768 4.59671 7.17087C4.4199 6.99406 4.17576 6.88477 3.90625 6.88477C3.36761 6.88477 2.92969 7.32269 2.92969 7.86133V17.1387C2.92969 17.6773 3.36761 18.1152 3.90625 18.1152C4.44489 18.1152 4.88281 17.6773 4.88281 17.1387V7.86133ZM7.81307 6.64062C7.81307 6.10199 7.37457 5.66406 6.83651 5.66406H6.83594C6.29787 5.66406 5.85938 6.10199 5.85938 6.64062V18.3594C5.85938 18.898 6.29787 19.3359 6.83651 19.3359C7.37457 19.3359 7.81307 18.898 7.81307 18.3594V6.64062ZM16.2075 12.9883H12.793C12.5235 12.9883 12.3047 12.7695 12.3047 12.5C12.3047 12.2305 12.5235 12.0117 12.793 12.0117H16.2075V11.0352H8.78716V13.9648H16.2075V12.9883ZM19.1406 6.64062C19.1406 6.10199 18.7021 5.66406 18.1635 5.66406C17.6254 5.66406 17.1869 6.10199 17.1869 6.64062V12.475C17.1865 12.4643 17.1856 12.4537 17.1841 12.4434V12.5566C17.1856 12.5463 17.1865 12.5357 17.1869 12.525V18.3594C17.1869 18.898 17.6254 19.3359 18.1635 19.3359H18.1641C18.7021 19.3359 19.1406 18.898 19.1406 18.3594V6.64062ZM22.0703 7.86133C22.0703 7.32269 21.6324 6.88477 21.0938 6.88477C20.5551 6.88477 20.1172 7.32269 20.1172 7.86133V17.1387C20.1172 17.6773 20.5551 18.1152 21.0938 18.1152C21.6324 18.1152 22.0703 17.6773 22.0703 17.1387V7.86133ZM24.0234 11.5234C24.0234 11.2543 23.8043 11.0352 23.5352 11.0352H23.0469V13.9648H23.5352C23.8043 13.9648 24.0234 13.7457 24.0234 13.4766V11.5234Z" fill="#D6DCE4"/>
<path d="M10.8408 12.0117C10.5711 12.0117 10.3523 12.2303 10.3523 12.5C10.3523 12.7697 10.5707 12.9883 10.8404 12.9883H10.8408C11.1105 12.9883 11.329 12.7697 11.329 12.5C11.329 12.2303 11.1105 12.0117 10.8408 12.0117Z" fill="#D6DCE4"/>
</g>
<defs>
<clipPath id="clip0">
<rect width="25" height="25" transform="matrix(1 0 0 -1 0 25)" fill="white"/>
</clipPath>
</defs>
</svg>
